<?xml version="1.0" standalone="no"?>
<!DOCTYPE svg PUBLIC "-//W3C//DTD SVG 20010904//EN"
 "http://www.w3.org/TR/2001/REC-SVG-20010904/DTD/svg10.dtd">
<svg version="1.0" xmlns="http://www.w3.org/2000/svg"
 width="1024.000000pt" height="1024.000000pt" viewBox="0 0 1024.000000 1024.000000"
 preserveAspectRatio="xMidYMid meet">

<g transform="translate(0.000000,1024.000000) scale(0.100000,-0.100000)"
fill="#000000" stroke="none">
<path d="M3630 10229 c-1008 -16 -1592 -77 -2044 -214 -712 -216 -1161 -673
-1371 -1397 -95 -326 -153 -747 -185 -1338 -39 -710 -39 -3610 0 -4320 39
-718 119 -1203 257 -1554 287 -731 833 -1130 1758 -1285 559 -94 1247 -121
3075 -121 1979 0 2640 31 3230 150 821 165 1331 565 1603 1256 137 349 218
839 257 1554 38 707 38 3613 0 4320 -32 587 -91 1017 -185 1339 -214 735 -671
1192 -1406 1406 -339 98 -724 151 -1344 185 -486 27 -2527 38 -3645 19z m-726
-3236 c15 -309 47 -586 96 -836 175 -884 589 -1547 1160 -1854 81 -44 235
-107 288 -118 l32 -7 0 1476 0 1476 550 0 550 0 0 -843 0 -844 63 9 c88 13
248 69 358 124 486 243 945 807 1154 1417 l48 137 548 0 c543 0 549 0 549 -20
0 -58 -70 -317 -127 -469 -86 -230 -181 -414 -328 -636 -139 -210 -239 -331
-444 -536 -182 -181 -372 -337 -524 -429 -31 -19 -57 -37 -57 -40 0 -3 46 -28
103 -57 175 -89 384 -233 572 -394 119 -102 341 -330 436 -449 260 -325 463
-703 589 -1098 22 -68 40 -128 40 -133 0 -5 -268 -9 -607 -9 l-608 0 -29 83
c-276 783 -933 1344 -1678 1432 l-58 7 0 -761 0 -761 -152 0 c-541 0 -1063 97
-1507 280 -1251 514 -2003 1712 -2166 3446 -16 173 -33 532 -26 540 2 2 266 4
586 4 l583 0 6 -137z"/>
</g>
</svg>
